<?xml version="1.0" standalone="no"?>
<!DOCTYPE svg PUBLIC "-//W3C//DTD SVG 20010904//EN"
 "http://www.w3.org/TR/2001/REC-SVG-20010904/DTD/svg10.dtd">
<svg version="1.0" xmlns="http://www.w3.org/2000/svg"
 width="300.000000pt" height="73.000000pt" viewBox="0 0 300.000000 73.000000"
 preserveAspectRatio="xMidYMid meet">
<metadata>
Created by potrace 1.10, written by Peter Selinger 2001-2011
</metadata>
<g transform="translate(0.000000,73.000000) scale(0.100000,-0.100000)"
fill="#000000" stroke="none">
<path d="M340 645 l0 -45 60 0 60 0 0 45 0 45 -60 0 -60 0 0 -45z"/>
<path d="M920 645 l0 -45 60 0 60 0 0 45 0 45 -60 0 -60 0 0 -45z"/>
<path d="M1690 605 c0 -48 -2 -55 -20 -55 -14 0 -20 -7 -20 -22 0 -21 -1 -20
-31 8 -28 27 -36 29 -109 29 -69 0 -81 -3 -104 -24 -14 -13 -32 -42 -40 -65
-10 -30 -15 -35 -15 -18 -1 37 -29 80 -63 98 -22 12 -49 15 -94 12 -74 -5
-114 -28 -129 -76 -10 -34 -27 -44 -24 -14 1 9 1 34 0 55 l-1 38 -117 -3 -118
-3 -12 -119 c-7 -65 -14 -121 -16 -123 -2 -2 -9 43 -16 99 -19 158 -15 149
-75 146 l-51 -3 -14 -123 c-7 -67 -15 -121 -17 -120 -1 2 -7 41 -13 88 -6 47
-14 102 -17 123 l-6 37 -114 0 -114 0 0 -52 c-1 -53 -1 -53 -14 -23 -22 51
-51 68 -117 73 -106 8 -169 -39 -169 -127 0 -60 16 -85 97 -151 69 -57 73 -63
73 -101 0 -36 -2 -40 -22 -37 -19 2 -24 10 -26 46 l-3 42 -61 0 -60 0 4 -60
c4 -52 9 -66 36 -92 26 -27 40 -32 89 -36 74 -5 125 15 153 60 l20 33 0 -47 0
-48 60 0 60 0 0 237 c0 130 3 234 6 230 3 -3 17 -95 30 -204 13 -109 26 -213
29 -231 l6 -33 67 3 67 3 15 135 c16 150 18 148 43 -40 l12 -95 54 -3 c30 -2
57 0 61 5 5 4 21 109 36 233 l29 225 5 -230 5 -230 58 -3 57 -3 0 66 c0 37 4
65 10 65 6 0 10 -10 10 -22 0 -39 36 -85 75 -98 21 -7 62 -10 93 -8 47 4 60
10 84 37 16 18 32 46 35 63 l6 31 16 -43 c22 -60 57 -83 134 -88 53 -3 67 0
97 20 47 32 60 61 60 136 l0 62 -60 0 -60 0 0 -47 c0 -57 -10 -76 -36 -71 -17
3 -19 16 -22 154 -2 126 0 153 13 164 26 21 45 -5 45 -61 l0 -49 60 0 60 0 0
45 c0 33 4 45 15 45 13 0 15 -27 15 -185 0 -184 0 -185 24 -200 16 -11 41 -15
73 -13 l48 3 3 42 c2 34 0 43 -12 43 -14 0 -16 21 -16 155 0 131 2 155 15 155
13 0 15 -24 15 -154 0 -143 2 -155 23 -187 12 -18 34 -39 47 -46 33 -17 113
-16 155 1 33 14 65 59 65 91 0 8 5 15 10 15 6 0 10 -7 10 -15 0 -58 65 -105
145 -105 68 0 114 25 136 74 l19 41 0 -58 0 -58 63 3 62 3 3 208 c2 181 5 209
19 214 36 14 43 -21 43 -229 l0 -199 58 3 57 3 3 200 c3 228 0 258 -33 291
-31 31 -96 33 -125 4 -20 -20 -20 -20 -20 45 l0 65 -65 0 -65 0 0 -97 c-1 -93
-1 -96 -15 -66 -20 48 -68 73 -138 73 -32 0 -71 -7 -87 -15 -30 -16 -59 -60
-61 -92 0 -10 -8 0 -18 22 -28 61 -53 78 -121 83 -71 5 -110 -9 -145 -50 l-25
-30 0 31 c0 20 -5 31 -14 31 -11 0 -16 15 -18 53 l-3 52 -57 3 -58 3 0 -56z
m-1480 -160 c5 -30 6 -30 68 -30 l62 0 0 -85 c-1 -81 -2 -83 -14 -54 -8 17
-46 57 -86 89 -75 60 -86 75 -76 101 10 26 40 12 46 -21z m1018 -28 l3 -57
-31 0 c-28 0 -30 3 -30 34 0 51 17 88 38 84 13 -2 18 -15 20 -61z m782 44 c5
-11 10 -38 10 -60 0 -39 -2 -41 -30 -41 -29 0 -30 2 -30 44 0 24 3 51 6 60 8
22 31 20 44 -3z m310 -41 l5 -55 63 0 62 0 0 -47 0 -48 -65 0 -65 0 0 -54 c0
-62 -18 -87 -44 -61 -13 14 -16 41 -16 151 0 139 8 178 38 172 13 -2 18 -17
22 -58z m-962 -142 c-3 -21 -9 -23 -65 -26 l-63 -3 0 -48 c0 -36 -4 -51 -17
-55 -25 -10 -34 5 -40 67 -9 86 -8 87 97 87 89 0 91 -1 88 -22z m782 -3 c0
-24 -3 -25 -60 -25 l-60 0 0 -38 c0 -21 -6 -47 -14 -57 -12 -16 -16 -17 -30
-6 -12 10 -16 31 -16 82 l0 69 90 0 c89 0 90 0 90 -25z"/>
<path d="M2795 185 c-49 -48 -16 -125 53 -125 43 0 72 30 72 75 0 69 -76 100
-125 50z"/>
</g>
</svg>
